<mxfile host="app.diagrams.net" agent="Mozilla/5.0 (Macintosh; Intel Mac OS X 10_15_7) AppleWebKit/537.36 (KHTML, like Gecko) Chrome/138.0.0.0 Safari/537.36" version="28.0.6">
  <diagram name="Page-1" id="OBbx15FdBmkEEtf_1neW">
    <mxGraphModel dx="1426" dy="769" grid="1" gridSize="10" guides="1" tooltips="1" connect="1" arrows="1" fold="1" page="1" pageScale="1" pageWidth="827" pageHeight="1169" math="0" shadow="0">
      <root>
        <mxCell id="0" />
        <mxCell id="1" parent="0" />
        <mxCell id="oxSPB6yIOMCNKOq10TtP-10" style="edgeStyle=orthogonalEdgeStyle;rounded=0;orthogonalLoop=1;jettySize=auto;html=1;exitX=1;exitY=0;exitDx=0;exitDy=0;entryX=0;entryY=0.5;entryDx=0;entryDy=0;curved=1;" edge="1" parent="1" source="oxSPB6yIOMCNKOq10TtP-1" target="oxSPB6yIOMCNKOq10TtP-2">
          <mxGeometry relative="1" as="geometry" />
        </mxCell>
        <mxCell id="oxSPB6yIOMCNKOq10TtP-11" style="edgeStyle=orthogonalEdgeStyle;rounded=0;orthogonalLoop=1;jettySize=auto;html=1;exitX=1;exitY=1;exitDx=0;exitDy=0;entryX=0;entryY=0.5;entryDx=0;entryDy=0;curved=1;" edge="1" parent="1" source="oxSPB6yIOMCNKOq10TtP-1" target="oxSPB6yIOMCNKOq10TtP-3">
          <mxGeometry relative="1" as="geometry" />
        </mxCell>
        <mxCell id="oxSPB6yIOMCNKOq10TtP-1" value="SensorTimerEvent" style="rounded=1;whiteSpace=wrap;html=1;" vertex="1" parent="1">
          <mxGeometry x="30" y="370" width="120" height="60" as="geometry" />
        </mxCell>
        <mxCell id="oxSPB6yIOMCNKOq10TtP-12" value="" style="edgeStyle=orthogonalEdgeStyle;rounded=0;orthogonalLoop=1;jettySize=auto;html=1;" edge="1" parent="1" source="oxSPB6yIOMCNKOq10TtP-2" target="oxSPB6yIOMCNKOq10TtP-4">
          <mxGeometry relative="1" as="geometry" />
        </mxCell>
        <mxCell id="oxSPB6yIOMCNKOq10TtP-2" value="Invoke &lt;i&gt;TEMT6000Acquire&lt;/i&gt;" style="rounded=1;whiteSpace=wrap;html=1;" vertex="1" parent="1">
          <mxGeometry x="200" y="290" width="120" height="60" as="geometry" />
        </mxCell>
        <mxCell id="oxSPB6yIOMCNKOq10TtP-14" value="" style="edgeStyle=orthogonalEdgeStyle;rounded=0;orthogonalLoop=1;jettySize=auto;html=1;" edge="1" parent="1" source="oxSPB6yIOMCNKOq10TtP-3" target="oxSPB6yIOMCNKOq10TtP-6">
          <mxGeometry relative="1" as="geometry" />
        </mxCell>
        <mxCell id="oxSPB6yIOMCNKOq10TtP-3" value="Invoke &lt;i&gt;DHT22Acquire&lt;/i&gt;" style="rounded=1;whiteSpace=wrap;html=1;" vertex="1" parent="1">
          <mxGeometry x="200" y="460" width="120" height="60" as="geometry" />
        </mxCell>
        <mxCell id="oxSPB6yIOMCNKOq10TtP-13" value="" style="edgeStyle=orthogonalEdgeStyle;rounded=0;orthogonalLoop=1;jettySize=auto;html=1;" edge="1" parent="1" source="oxSPB6yIOMCNKOq10TtP-4" target="oxSPB6yIOMCNKOq10TtP-5">
          <mxGeometry relative="1" as="geometry" />
        </mxCell>
        <mxCell id="oxSPB6yIOMCNKOq10TtP-4" value="Update &lt;i&gt;TEMT6000Meas&lt;/i&gt;" style="rounded=1;whiteSpace=wrap;html=1;" vertex="1" parent="1">
          <mxGeometry x="360" y="290" width="120" height="60" as="geometry" />
        </mxCell>
        <mxCell id="oxSPB6yIOMCNKOq10TtP-17" style="edgeStyle=orthogonalEdgeStyle;rounded=0;orthogonalLoop=1;jettySize=auto;html=1;entryX=0;entryY=0;entryDx=0;entryDy=0;curved=1;" edge="1" parent="1" source="oxSPB6yIOMCNKOq10TtP-5" target="oxSPB6yIOMCNKOq10TtP-8">
          <mxGeometry relative="1" as="geometry" />
        </mxCell>
        <mxCell id="oxSPB6yIOMCNKOq10TtP-5" value="Set &lt;i&gt;TEMT6000Changed&lt;/i&gt;" style="rounded=1;whiteSpace=wrap;html=1;" vertex="1" parent="1">
          <mxGeometry x="520" y="290" width="120" height="60" as="geometry" />
        </mxCell>
        <mxCell id="oxSPB6yIOMCNKOq10TtP-15" value="" style="edgeStyle=orthogonalEdgeStyle;rounded=0;orthogonalLoop=1;jettySize=auto;html=1;" edge="1" parent="1" source="oxSPB6yIOMCNKOq10TtP-6" target="oxSPB6yIOMCNKOq10TtP-7">
          <mxGeometry relative="1" as="geometry" />
        </mxCell>
        <mxCell id="oxSPB6yIOMCNKOq10TtP-6" value="Update &lt;i&gt;DTH22Meas&lt;/i&gt;" style="rounded=1;whiteSpace=wrap;html=1;" vertex="1" parent="1">
          <mxGeometry x="360" y="460" width="120" height="60" as="geometry" />
        </mxCell>
        <mxCell id="oxSPB6yIOMCNKOq10TtP-16" style="edgeStyle=orthogonalEdgeStyle;rounded=0;orthogonalLoop=1;jettySize=auto;html=1;entryX=0;entryY=1;entryDx=0;entryDy=0;curved=1;" edge="1" parent="1" source="oxSPB6yIOMCNKOq10TtP-7" target="oxSPB6yIOMCNKOq10TtP-8">
          <mxGeometry relative="1" as="geometry" />
        </mxCell>
        <mxCell id="oxSPB6yIOMCNKOq10TtP-7" value="Set &lt;i&gt;DHT22Changed&lt;/i&gt;" style="rounded=1;whiteSpace=wrap;html=1;" vertex="1" parent="1">
          <mxGeometry x="520" y="460" width="120" height="60" as="geometry" />
        </mxCell>
        <mxCell id="oxSPB6yIOMCNKOq10TtP-8" value="Reconfigure Timer" style="rounded=1;whiteSpace=wrap;html=1;" vertex="1" parent="1">
          <mxGeometry x="690" y="370" width="120" height="60" as="geometry" />
        </mxCell>
      </root>
    </mxGraphModel>
  </diagram>
</mxfile>
